<svg width="88" height="84" viewBox="0 0 88 84" fill="none" xmlns="http://www.w3.org/2000/svg">
<path d="M40.4371 2.98144C41.9217 0.0724335 46.0783 0.0724344 47.5629 2.98144L58.0636 23.5576C58.6448 24.6965 59.7354 25.4889 60.9981 25.6897L83.8121 29.3181C87.0375 29.831 88.3219 33.7842 86.0141 36.095L69.6899 52.4401C68.7864 53.3448 68.3698 54.627 68.569 55.89L72.1681 78.7085C72.6769 81.9346 69.3142 84.3778 66.4033 82.8969L45.8137 72.4227C44.6741 71.8429 43.3259 71.8429 42.1863 72.4227L21.5967 82.8969C18.6858 84.3778 15.3231 81.9346 15.8319 78.7085L19.431 55.89C19.6302 54.627 19.2136 53.3448 18.3101 52.4401L1.98593 36.095C-0.321941 33.7842 0.96252 29.831 4.1879 29.3181L27.0019 25.6897C28.2646 25.4889 29.3552 24.6965 29.9365 23.5576L40.4371 2.98144Z" fill="white"/>
</svg>
