<svg width="720" height="720" viewBox="0 0 720 720" fill="none" xmlns="http://www.w3.org/2000/svg">
<rect width="720" height="720" fill="#816BFF"/>
<path fill-rule="evenodd" clip-rule="evenodd" d="M114.497 432.949H136.659C144.542 432.949 150.92 426.544 150.92 418.645V415.882C150.92 407.992 144.542 401.587 136.659 401.587H114.497C110.99 401.571 107.633 400.168 105.158 397.684C102.683 395.201 101.291 391.84 101.286 388.334V299.793C101.286 291.903 94.8985 285.499 87.0158 285.499H84.2614C76.3877 285.499 70 291.903 70 299.793V388.334C70 412.875 90.0239 432.949 114.497 432.949ZM389.821 316.869H404.862V418.654C404.862 426.544 411.25 432.94 419.123 432.94H421.887C429.769 432.94 436.148 426.544 436.148 418.645V316.869H451.189C459.071 316.869 465.45 310.465 465.45 302.565V299.802C465.45 291.912 459.062 285.508 451.189 285.508H389.821C381.939 285.508 375.56 291.912 375.56 299.802V302.565C375.56 310.465 381.948 316.869 389.821 316.869ZM491.2 432.659C492.134 432.84 493.103 432.949 494.082 432.949H551.571C559.454 432.949 565.833 426.544 565.833 418.645V415.882C565.833 407.992 559.445 401.587 551.571 401.587H511.097V375.027H542.565C550.43 375.027 556.817 368.631 556.817 360.732V357.96C556.817 350.07 550.43 343.665 542.556 343.665H511.097V316.869H551.571C559.454 316.869 565.833 310.465 565.833 302.574V299.812C565.833 291.912 559.445 285.508 551.571 285.508H494.082C486.199 285.508 479.811 291.912 479.811 299.812V418.654C479.811 425.566 484.704 431.337 491.2 432.668M200.446 330.512C200.446 323.926 205.066 318.038 211.572 317.014C219.754 315.746 226.884 322.142 226.884 330.113V362.779H200.446V330.512ZM183.412 432.949H186.175C194.058 432.949 200.446 426.544 200.446 418.645V394.141H226.884V418.645C226.884 426.544 233.263 432.949 241.137 432.949H243.9C251.783 432.949 258.162 426.544 258.162 418.645V330.113C258.162 304.368 236.117 283.533 210.023 285.644C186.764 287.528 169.159 307.629 169.159 331.028V418.645C169.159 426.544 175.529 432.949 183.412 432.949ZM324.784 316.869H346.937C354.811 316.869 361.199 310.456 361.199 302.556V299.793C361.199 291.903 354.811 285.499 346.937 285.499H324.775C300.312 285.499 280.288 305.573 280.288 330.113V418.645C280.288 426.544 286.657 432.94 294.54 432.94H297.294C305.177 432.94 311.556 426.544 311.556 418.645V378.922H346.937C354.811 378.922 361.199 372.518 361.199 364.618V361.864C361.199 353.965 354.811 347.561 346.937 347.561H311.556V330.113C311.556 322.821 317.509 316.86 324.784 316.86M628.577 432.949H650.73C658.613 432.949 664.992 426.544 664.992 418.645V415.882C664.992 407.992 658.604 401.587 650.73 401.587H628.577C621.302 401.587 615.349 395.627 615.349 388.334V299.793C615.349 291.903 608.961 285.499 601.096 285.499H598.333C590.45 285.499 584.072 291.903 584.072 299.793V388.334C584.072 412.875 604.096 432.949 628.577 432.949Z" fill="white"/>
</svg>
